<?xml version="1.0" encoding="UTF-8" standalone="no"?>
<svg
    viewBox="0 0 16 16"
    version="1.1"
    id="svg6"
    xmlns="http://www.w3.org/2000/svg"
>
  <defs
      id="defs6"/>

  <g
      fill="none"
      fill-rule="evenodd"
      mask="url(#outline)"
      id="g2"
      style="display:inline;fill:#ffdd55">
    <path
        fill="#40B6E0"
        fill-opacity="0.6"
        d="m 15,8 c 0,3.866 -3.134,7 -7,7 C 4.134,15 1,11.866 1,8 1,4.134 4.134,1 8,1 c 3.866,0 7,3.134 7,7"
        id="path1"
        style="display:inline;fill:#ad67e8;fill-opacity:0.60000002"/>
    <g
        style="display:inline;fill:#584c1d;fill-opacity:0.878641">
      <path
          fill-rule="evenodd"
          clip-rule="evenodd"
          d="m 8.672484,8.404403 -0.78466,-1.92 -0.77534,1.92 z m -1.0730981,-3.6 H 8.2114378 L 10.635055,10.831499 9.572464,10.804403 8.8640813,9.4282811 6.8666554,9.4011854 6.212464,10.804403 5.1227773,10.763759 Z"
          fill="#9aa7b0"
          id="path1-3"
          style="display:inline;fill:#421d58;fill-opacity:0.87864101;fill-rule:evenodd"
      />
    </g>
  </g>
  <g>
    <g
        id="g6"
        style="display:inline"
    >
      <rect
          x="11"
          y="11"
          width="4"
          height="4"
          fill="#f7941e"
          id="rect2"/>
      <path
          d="M 11,13 10,11.5 V 10 h 1.5 l 1.5,1 z"
          fill="#fdb813"
          id="path3"/>
      <path
          d="m 11,13 -1,1.5 V 16 h 1.5 L 13,15 Z"
          fill="#fdb813"
          id="path4"/>
      <path
          d="m 15,13 1,-1.5 V 10 H 14.5 L 13,11 Z"
          fill="#f58220"
          id="path5"/>
      <path
          d="m 15,13 1,1.5 V 16 H 14.5 L 13,15 Z"
          fill="#f58220"
          id="path6"/>
    </g>
  </g>
</svg>
