<!-- Copyright 2000-2021 JetBrains s.r.o. Use of this source code is governed by the Apache 2.0 license that can be found in the LICENSE file. -->
<svg xmlns="http://www.w3.org/2000/svg" width="16" height="16" viewBox="0 0 16 16">
  <g fill="none" fill-rule="evenodd">
    <path fill="#F4AF3D" fill-opacity=".6" d="M15,8 C15,11.866 11.866,15 8,15 C4.134,15 1,11.866 1,8 C1,4.134 4.134,1 8,1 C11.866,1 15,4.134 15,8"/>
    <path fill="#231F20" fill-opacity=".7" d="M2.2939,6 L-0.0001,0 L1.2,0 C2.3886,3.13933333 2.98856667,4.73933333 2.9999,4.8 L4.8,0 L5.9999,0 L3.7059,6 L2.2939,6 Z" transform="translate(5 5)"/>
  </g>
  <g>
    <rect x="11" y="11" width="4" height="4" fill="#f7941e" />
    <path d="M11,13 l-1,-1.5 l0,-1.5 l1.5,0 l1.5,1 Z" fill="#fdb813" />
    <path d="M11,13 l-1,1.5 l0,1.5 l1.5,0 l1.5,-1 Z" fill="#fdb813" />
    <path d="M15,13 l1,-1.5 l0,-1.5 l-1.5,0 l-1.5,1 Z" fill="#f58220" />
    <path d="M15,13 l1,1.5 l0,1.5 l-1.5,0 l-1.5,-1 Z" fill="#f58220" />
  </g>
</svg>
