<!-- Copyright 2000-2022 JetBrains s.r.o. and contributors. Use of this source code is governed by the Apache 2.0 license. -->
<svg width="16" height="16" viewBox="0 0 16 16" fill="none" xmlns="http://www.w3.org/2000/svg">
<circle cx="8" cy="8" r="6.5" fill="#E7EFFD" stroke="#3574F0"/>
<path d="M5.48999 11.5H10.51V10.585H6.47999V8.435H10.07V7.515H6.47999V5.415H10.41V4.5H5.48999V11.5Z" fill="#3574F0"/>
  <g>
    <rect x="11" y="11" width="4" height="4" fill="#f7941e" />
    <path d="M11,13 l-1,-1.5 l0,-1.5 l1.5,0 l1.5,1 Z" fill="#fdb813" />
    <path d="M11,13 l-1,1.5 l0,1.5 l1.5,0 l1.5,-1 Z" fill="#fdb813" />
    <path d="M15,13 l1,-1.5 l0,-1.5 l-1.5,0 l-1.5,1 Z" fill="#f58220" />
    <path d="M15,13 l1,1.5 l0,1.5 l-1.5,0 l-1.5,-1 Z" fill="#f58220" />
  </g>
</svg>
