<?xml version="1.0" encoding="UTF-8" standalone="no"?>
<!-- Copyright 2000-2021 JetBrains s.r.o. Use of this source code is governed by the Apache 2.0 license that can be found in the LICENSE file. -->

<svg
   width="16"
   height="16"
   viewBox="0 0 16 16"
   version="1.1"
   id="svg7"
   sodipodi:docname="multipleDefinitions.svg"
   inkscape:version="1.3.2 (091e20e, 2023-11-25, custom)"
   xmlns:inkscape="http://www.inkscape.org/namespaces/inkscape"
   xmlns:sodipodi="http://sodipodi.sourceforge.net/DTD/sodipodi-0.dtd"
   xmlns="http://www.w3.org/2000/svg"
   xmlns:svg="http://www.w3.org/2000/svg">
  <defs
     id="defs7" />
  <sodipodi:namedview
     id="namedview7"
     pagecolor="#ffffff"
     bordercolor="#000000"
     borderopacity="0.25"
     inkscape:showpageshadow="2"
     inkscape:pageopacity="0.0"
     inkscape:pagecheckerboard="0"
     inkscape:deskcolor="#d1d1d1"
     inkscape:zoom="9.2265625"
     inkscape:cx="49.151566"
     inkscape:cy="56.955123"
     inkscape:window-width="2560"
     inkscape:window-height="1377"
     inkscape:window-x="-7"
     inkscape:window-y="1432"
     inkscape:window-maximized="1"
     inkscape:current-layer="g3" />
  <g
     fill="none"
     fill-opacity=".6"
     fill-rule="evenodd"
     transform="matrix(-1 0 0 1 15 1)"
     id="g3">
    <path
       fill="#40B6E0"
       d="m 14.338696,9.8522439 c 0,2.4852861 -2.014714,4.5000001 -4.5,4.5000001 -2.4852857,0 -4.5,-2.014714 -4.5,-4.5000001 0,-2.4852857 2.0147143,-4.5 4.5,-4.5 2.485286,0 4.5,2.0147143 4.5,4.5"
       id="path1"
       style="fill:none;stroke:#3fb6df;stroke-opacity:0.6" />
    <path
       fill="#F4AF3D"
       d="M 4.2936045,10.543321 C 3.3284944,9.71797 2.716765,8.4913903 2.716765,7.1219306 c 0,-2.4852857 2.0147143,-4.5 4.5,-4.5 1.3694597,0 2.5960394,0.6117294 3.42139,1.5768395 -0.299596,-0.050532 -0.607421,-0.07684 -0.92139,-0.07684 -2.9900944,0 -5.5,2.4224343 -5.5,5.5 0,0.3139695 0.026308,0.6217949 0.07684,0.9213909 z"
       id="path2"
       style="fill:none;stroke:#f3af3c;stroke-opacity:0.6"
       sodipodi:nodetypes="csscssc" />
    <path
       fill="#62B543"
       d="M 1.576839,7.9213905 C 0.61172891,7.0960395 -4.8984077e-7,5.8694597 -4.8984077e-7,4.5 -4.8984077e-7,2.0147143 2.0147138,0 4.4999995,0 5.8694592,0 7.096039,0.6117294 7.92139,1.5768395 7.6217939,1.5263079 7.313969,1.5 6.9999995,1.5 c -3.0375714,0 -5.5,2.4624286 -5.5,5.5 0,0.3139695 0.026308,0.6217944 0.07684,0.9213905 z"
       id="path3"
       style="fill:none;stroke:#62b643;stroke-opacity:0.6" />
  </g>
  <g
     id="g7">
    <rect
       x="11"
       y="11"
       width="4"
       height="4"
       fill="#f7941e"
       id="rect3" />
    <path
       d="M11,13 l-1,-1.5 l0,-1.5 l1.5,0 l1.5,1 Z"
       fill="#fdb813"
       id="path4" />
    <path
       d="M11,13 l-1,1.5 l0,1.5 l1.5,0 l1.5,-1 Z"
       fill="#fdb813"
       id="path5" />
    <path
       d="M15,13 l1,-1.5 l0,-1.5 l-1.5,0 l-1.5,1 Z"
       fill="#f58220"
       id="path6" />
    <path
       d="M15,13 l1,1.5 l0,1.5 l-1.5,0 l-1.5,-1 Z"
       fill="#f58220"
       id="path7" />
  </g>
</svg>
