<!-- Copyright 2000-2023 JetBrains s.r.o. and contributors. Use of this source code is governed by the Apache 2.0 license. -->
<svg width="16" height="16" viewBox="0 0 16 16" fill="none" xmlns="http://www.w3.org/2000/svg">
<circle cx="8" cy="8" r="6.5" fill="#FFF4EB" stroke="#E66D17"/>
<path d="M7.5459 11.4H8.46582L10.8213 5.40002H9.79004L8.04395 10.1051L6.23926 5.40002H5.17871L7.5459 11.4Z" fill="#E66D17"/>
  <g>
    <rect x="11" y="11" width="4" height="4" fill="#f7941e" />
    <path d="M11,13 l-1,-1.5 l0,-1.5 l1.5,0 l1.5,1 Z" fill="#fdb813" />
    <path d="M11,13 l-1,1.5 l0,1.5 l1.5,0 l1.5,-1 Z" fill="#fdb813" />
    <path d="M15,13 l1,-1.5 l0,-1.5 l-1.5,0 l-1.5,1 Z" fill="#f58220" />
    <path d="M15,13 l1,1.5 l0,1.5 l-1.5,0 l-1.5,-1 Z" fill="#f58220" />
  </g>
</svg>
